<svg width="35" height="41" viewBox="0 0 35 41" fill="none" xmlns="http://www.w3.org/2000/svg">
<path d="M2.93947 13.5496C2.25048 13.5496 1.66505 13.7898 1.18445 14.2708C0.703848 14.7517 0.463379 15.3285 0.463379 16.0015V26.3386C0.463379 27.0273 0.703764 27.6122 1.18445 28.0931C1.66505 28.574 2.25014 28.814 2.93922 28.814C3.62846 28.814 4.20935 28.5739 4.68203 28.0931C5.15506 27.6122 5.3914 27.0273 5.3914 26.3386V16.0015C5.3914 15.3282 5.15085 14.7514 4.67024 14.2708C4.18956 13.79 3.61238 13.5496 2.93947 13.5496Z" fill="#919191" fill-opacity="0.5"/>
<path d="M6.35352 30.0165C6.35352 30.7536 6.60998 31.3786 7.12275 31.8915C7.6356 32.4038 8.26043 32.6602 8.99784 32.6602H10.7768L10.801 38.1171C10.801 38.8063 11.0414 39.3909 11.5221 39.8718C12.0027 40.3527 12.5798 40.593 13.2528 40.593C13.9422 40.593 14.5269 40.3527 15.0078 39.8718C15.4887 39.3909 15.7289 38.8063 15.7289 38.1171V32.6602H19.046V38.1171C19.046 38.8063 19.2863 39.3909 19.7669 39.8718C20.2481 40.3527 20.833 40.593 21.5223 40.593C22.2109 40.593 22.7959 40.3527 23.2765 39.8718C23.7571 39.3909 23.9971 38.8063 23.9971 38.1171V32.6602H25.8003C26.521 32.6602 27.1382 32.4043 27.651 31.8915C28.1639 31.3786 28.4204 30.7536 28.4204 30.0165V14.0063H6.35352V30.0165Z" fill="#919191" fill-opacity="0.5"/>
<path d="M22.8432 4.27076L24.5494 1.12151C24.6618 0.9132 24.6214 0.752971 24.4295 0.640903C24.2209 0.544665 24.0608 0.592742 23.9489 0.785219L22.2178 3.95822C20.6954 3.28514 19.0853 2.9486 17.3862 2.9486C15.6876 2.9486 14.0769 3.28514 12.5544 3.95822L10.8236 0.785303C10.7118 0.592826 10.5513 0.544749 10.343 0.640988C10.1506 0.753055 10.1108 0.913284 10.2229 1.12159L11.9297 4.27076C10.1987 5.15206 8.82085 6.38211 7.7949 7.96065C6.76928 9.53928 6.25635 11.2662 6.25635 13.1409H28.4926C28.4926 11.2662 27.9798 9.53919 26.9541 7.96065C25.9279 6.38211 24.5585 5.15198 22.8432 4.27076ZM12.9751 8.84995C12.7909 9.03434 12.5707 9.12646 12.3142 9.12646C12.0578 9.12646 11.8415 9.03443 11.6651 8.84995C11.489 8.66581 11.4007 8.44538 11.4007 8.189C11.4007 7.93253 11.489 7.7121 11.6651 7.52771C11.8413 7.34331 12.0578 7.25137 12.3142 7.25137C12.5704 7.25137 12.7907 7.34323 12.9751 7.52771C13.1595 7.7121 13.2516 7.93253 13.2516 8.189C13.2516 8.44546 13.1595 8.66556 12.9751 8.84995ZM23.1079 8.84995C22.9312 9.03434 22.7149 9.12646 22.4585 9.12646C22.202 9.12646 21.9822 9.03443 21.7977 8.84995C21.6133 8.66581 21.5214 8.44538 21.5214 8.189C21.5214 7.93253 21.6133 7.7121 21.7977 7.52771C21.9821 7.34331 22.202 7.25137 22.4585 7.25137C22.7149 7.25137 22.9312 7.34323 23.1079 7.52771C23.2837 7.7121 23.3722 7.93253 23.3722 8.189C23.3722 8.44546 23.284 8.66556 23.1079 8.84995Z" fill="#919191" fill-opacity="0.5"/>
<path d="M33.5893 14.2587C33.1087 13.786 32.5238 13.5496 31.8346 13.5496C31.1617 13.5496 30.5848 13.786 30.1042 14.2587C29.6234 14.7315 29.3828 15.3126 29.3828 16.0015V26.3386C29.3828 27.0273 29.6234 27.6122 30.1042 28.0931C30.5848 28.574 31.1617 28.814 31.8346 28.814C32.5238 28.814 33.1087 28.5739 33.5893 28.0931C34.0705 27.6122 34.3108 27.0273 34.3108 26.3386V16.0015C34.3108 15.3125 34.0705 14.7314 33.5893 14.2587Z" fill="#919191" fill-opacity="0.5"/>
</svg>
