<svg width="53" height="52" viewBox="0 0 53 52" fill="none" xmlns="http://www.w3.org/2000/svg">
<path d="M16.2307 26C16.2307 24.6946 15.1724 23.6364 13.867 23.6364H4.41247C3.10711 23.6364 2.04883 24.6946 2.04883 26C2.04883 27.3054 3.10711 28.3636 4.41247 28.3636H13.867C15.1724 28.3636 16.2307 27.3054 16.2307 26Z" fill="#C5C5C5"/>
<path d="M49.3214 23.6364H44.5941C43.2887 23.6364 42.2305 24.6946 42.2305 26C42.2305 27.3054 43.2887 28.3636 44.5941 28.3636H49.3214C50.6267 28.3636 51.685 27.3054 51.685 26C51.685 24.6946 50.6267 23.6364 49.3214 23.6364Z" fill="#C5C5C5"/>
<path d="M28.0487 14.1818C29.3541 14.1818 30.4123 13.1235 30.4123 11.8182V2.36364C30.4123 1.05828 29.3541 0 28.0487 0C26.7433 0 25.6851 1.05828 25.6851 2.36364V11.8182C25.6851 13.1235 26.7433 14.1818 28.0487 14.1818Z" fill="#C5C5C5"/>
<path d="M28.0482 37.8182C26.7428 37.8182 25.6846 38.8765 25.6846 40.1818V49.6364C25.6846 50.9417 26.7428 52 28.0482 52C29.3536 52 30.4118 50.9417 30.4118 49.6364V40.1818C30.4118 38.8765 29.3536 37.8182 28.0482 37.8182Z" fill="#C5C5C5"/>
<path d="M13.0066 7.61519C12.0839 6.69211 10.5872 6.69227 9.66399 7.61519C8.74091 8.53827 8.74091 10.0348 9.66399 10.9578L16.3495 17.6435C16.811 18.105 17.4159 18.3359 18.0207 18.3359C18.6255 18.3359 19.2306 18.105 19.692 17.6436C20.615 16.7205 20.615 15.224 19.692 14.301L13.0066 7.61519Z" fill="#C5C5C5"/>
<path d="M39.7478 34.3568C38.8249 33.4339 37.3282 33.4339 36.4051 34.3568C35.4821 35.2799 35.4822 36.7764 36.4051 37.6994L43.0908 44.3847C43.5523 44.8463 44.1572 45.077 44.7622 45.077C45.3671 45.077 45.9721 44.8461 46.4334 44.3847C47.3565 43.4617 47.3565 41.9652 46.4334 41.0421L39.7478 34.3568Z" fill="#C5C5C5"/>
<path d="M16.3503 34.3568L9.66497 41.0421C8.74189 41.9652 8.74189 43.4617 9.66497 44.3847C10.1265 44.8463 10.7314 45.077 11.3364 45.077C11.9413 45.077 12.5462 44.8463 13.0076 44.3847L19.6929 37.6994C20.616 36.7763 20.616 35.2798 19.6929 34.3568C18.7699 33.4337 17.2732 33.4337 16.3503 34.3568Z" fill="#C5C5C5"/>
</svg>
