<svg width="58" height="39" viewBox="0 0 58 39" fill="none" xmlns="http://www.w3.org/2000/svg">
<path d="M47.4677 28.4836C46.0749 28.4836 44.7517 29.0291 43.7536 30.0157C42.7554 31.0139 42.1983 32.3138 42.1983 33.7066C42.1983 35.0994 42.7438 36.3993 43.7536 37.3975C44.7633 38.3841 46.0749 38.9296 47.4677 38.9296C50.3229 38.9296 52.6442 36.585 52.6442 33.7066C52.6442 30.8282 50.3229 28.4836 47.4677 28.4836ZM47.4677 36.6082C45.866 36.6082 44.5196 35.2851 44.5196 33.7066C44.5196 32.1281 45.866 30.8049 47.4677 30.8049C49.0462 30.8049 50.3229 32.1049 50.3229 33.7066C50.3229 35.3083 49.0462 36.6082 47.4677 36.6082ZM48.814 11.0853C48.6051 10.888 48.3266 10.7836 48.0364 10.7836H42.0822C41.4439 10.7836 40.9216 11.3059 40.9216 11.9442V21.4616C40.9216 22.1 41.4439 22.6223 42.0822 22.6223H51.53C52.1683 22.6223 52.6906 22.1 52.6906 21.4616V15.0896C52.6906 14.7646 52.5514 14.4513 52.3076 14.2307L48.814 11.0853ZM50.3693 20.301H43.2429V13.0933H47.5837L50.3693 15.6003V20.301ZM19.1244 28.4836C17.7316 28.4836 16.4084 29.0291 15.4103 30.0157C14.4121 31.0139 13.855 32.3138 13.855 33.7066C13.855 35.0994 14.4005 36.3993 15.4103 37.3975C16.42 38.3841 17.7316 38.9296 19.1244 38.9296C21.9796 38.9296 24.3009 36.585 24.3009 33.7066C24.3009 30.8282 21.9796 28.4836 19.1244 28.4836ZM19.1244 36.6082C17.5227 36.6082 16.1763 35.2851 16.1763 33.7066C16.1763 32.1281 17.5227 30.8049 19.1244 30.8049C20.7029 30.8049 21.9796 32.1049 21.9796 33.7066C21.9796 35.3083 20.7029 36.6082 19.1244 36.6082ZM11.3828 29.9112H9.04984V26.8239C9.04984 26.1855 8.52754 25.6632 7.88918 25.6632C7.25082 25.6632 6.72852 26.1855 6.72852 26.8239V31.0719C6.72852 31.7103 7.25082 32.2326 7.88918 32.2326H11.3828C12.0211 32.2326 12.5434 31.7103 12.5434 31.0719C12.5434 30.4335 12.0211 29.9112 11.3828 29.9112ZM17.2673 23.5856C17.2673 22.9473 16.745 22.425 16.1067 22.425H2.02785C1.38948 22.425 0.867188 22.9473 0.867188 23.5856C0.867188 24.224 1.38948 24.7463 2.02785 24.7463H16.1067C16.745 24.7463 17.2673 24.2356 17.2673 23.5856ZM4.38399 19.3957L18.4628 19.4769C19.1012 19.4769 19.6234 18.9662 19.6351 18.3279C19.6467 17.6779 19.1244 17.1556 18.486 17.1556L4.4072 17.0743C4.39559 17.0743 4.39559 17.0743 4.39559 17.0743C3.75723 17.0743 3.23493 17.585 3.23493 18.2234C3.22333 18.8734 3.74562 19.3957 4.38399 19.3957ZM6.75173 14.1263H20.8305C21.4689 14.1263 21.9912 13.604 21.9912 12.9656C21.9912 12.3272 21.4689 11.8049 20.8305 11.8049H6.75173C6.11337 11.8049 5.59107 12.3272 5.59107 12.9656C5.59107 13.604 6.11337 14.1263 6.75173 14.1263ZM57.4377 12.5594L49.1274 5.67666C48.9185 5.50256 48.6632 5.40971 48.3846 5.40971H38.6118V1.23134C38.6118 0.592976 38.0895 0.0706787 37.4512 0.0706787H7.88918C7.25082 0.0706787 6.72852 0.592976 6.72852 1.23134V9.72737C6.72852 10.3657 7.25082 10.888 7.88918 10.888C8.52754 10.888 9.04984 10.3657 9.04984 9.72737V2.392H36.3021V29.9112H26.7847C26.1464 29.9112 25.6241 30.4335 25.6241 31.0719C25.6241 31.7103 26.1464 32.2326 26.7847 32.2326H40.9564C41.5947 32.2326 42.117 31.7103 42.117 31.0719C42.117 30.4335 41.5947 29.9112 40.9564 29.9112H38.6234V7.73103H47.9784L55.5459 13.9986L55.4646 29.888H54.2575C53.6192 29.888 53.0969 30.4103 53.0969 31.0487C53.0969 31.687 53.6192 32.2093 54.2575 32.2093H56.6137C57.252 32.2093 57.7743 31.6987 57.7743 31.0603L57.8672 13.4647C57.8556 13.1165 57.7047 12.7799 57.4377 12.5594Z" fill="white"/>
</svg>
